<svg width="231" height="452" viewBox="0 0 231 452" fill="none" xmlns="http://www.w3.org/2000/svg">
<path d="M70.0688 146H54.8048L37.8128 81.68H49.3328L59.7968 122.384L62.6768 136.016H63.4448L66.9008 122.384L79.8608 81.68H94.9328L108.757 122.384L112.405 136.016H113.173L115.861 122.384L125.461 81.68H136.789L120.661 146H105.397L92.4368 108.56L87.7328 92.048H86.8688L82.2608 108.56L70.0688 146ZM166.894 146.96C161.71 146.96 157.166 146 153.262 144.08C149.358 142.16 146.318 139.344 144.142 135.632C142.03 131.92 140.974 127.44 140.974 122.192C140.974 117.2 142.03 112.848 144.142 109.136C146.318 105.424 149.326 102.544 153.166 100.496C157.006 98.384 161.518 97.328 166.702 97.328C171.63 97.328 175.95 98.224 179.662 100.016C183.438 101.744 186.35 104.304 188.398 107.696C190.51 111.024 191.566 115.12 191.566 119.984C191.566 120.816 191.534 121.616 191.47 122.384C191.406 123.088 191.31 123.792 191.182 124.496H147.598V118.736H184.366L181.678 122.288C181.742 121.648 181.774 121.04 181.774 120.464C181.774 119.824 181.774 119.184 181.774 118.544C181.774 114.128 180.494 110.864 177.934 108.752C175.438 106.576 171.63 105.488 166.51 105.488C160.814 105.488 156.75 106.8 154.318 109.424C151.886 112.048 150.67 115.824 150.67 120.752V123.248C150.67 128.24 151.886 132.048 154.318 134.672C156.75 137.296 160.846 138.608 166.606 138.608C171.598 138.608 175.182 137.84 177.358 136.304C179.598 134.704 180.718 132.496 180.718 129.68V128.912H191.086V129.776C191.086 133.168 190.03 136.176 187.918 138.8C185.87 141.36 183.022 143.376 179.374 144.848C175.79 146.256 171.63 146.96 166.894 146.96ZM38.4731 264H26.9531L55.6571 199.68H70.2491L98.9531 264H87.2411L66.9851 218.4L63.2411 209.28H62.4731L58.7291 218.4L38.4731 264ZM84.0731 247.296H41.1611V237.984H84.0731V247.296ZM114.121 264H103.753V216.288H113.257V229.824L114.121 230.304V264ZM114.121 237.216H111.817V229.152H113.929C114.377 226.528 115.273 224.192 116.617 222.144C117.961 220.032 119.753 218.368 121.993 217.152C124.297 215.936 127.081 215.328 130.345 215.328C133.993 215.328 136.969 216.096 139.273 217.632C141.577 219.168 143.241 221.216 144.265 223.776C145.353 226.336 145.897 229.12 145.897 232.128V238.368H135.625V234.144C135.625 230.688 134.857 228.16 133.321 226.56C131.785 224.96 129.225 224.16 125.641 224.16C121.545 224.16 118.601 225.28 116.809 227.52C115.017 229.76 114.121 232.992 114.121 237.216ZM176.409 264.96C171.225 264.96 166.681 264 162.777 262.08C158.873 260.16 155.833 257.344 153.657 253.632C151.545 249.92 150.489 245.44 150.489 240.192C150.489 235.2 151.545 230.848 153.657 227.136C155.833 223.424 158.841 220.544 162.681 218.496C166.521 216.384 171.033 215.328 176.217 215.328C181.145 215.328 185.465 216.224 189.177 218.016C192.953 219.744 195.865 222.304 197.913 225.696C200.025 229.024 201.081 233.12 201.081 237.984C201.081 238.816 201.049 239.616 200.985 240.384C200.921 241.088 200.825 241.792 200.697 242.496H157.113V236.736H193.881L191.193 240.288C191.257 239.648 191.289 239.04 191.289 238.464C191.289 237.824 191.289 237.184 191.289 236.544C191.289 232.128 190.009 228.864 187.449 226.752C184.953 224.576 181.145 223.488 176.025 223.488C170.329 223.488 166.265 224.8 163.833 227.424C161.401 230.048 160.185 233.824 160.185 238.752V241.248C160.185 246.24 161.401 250.048 163.833 252.672C166.265 255.296 170.361 256.608 176.121 256.608C181.113 256.608 184.697 255.84 186.873 254.304C189.113 252.704 190.233 250.496 190.233 247.68V246.912H200.601V247.776C200.601 251.168 199.545 254.176 197.433 256.8C195.385 259.36 192.537 261.376 188.889 262.848C185.305 264.256 181.145 264.96 176.409 264.96ZM15.4961 382H5.12813V317.68H15.4961V382ZM55.1441 382H8.20013V372.688H55.1441V382ZM81.7189 382.96C77.2389 382.96 73.5269 382.064 70.5829 380.272C67.6389 378.48 65.4309 376.08 63.9589 373.072C62.4869 370.064 61.7509 366.704 61.7509 362.992V334.288H72.0229V360.208C72.0229 364.624 73.1109 367.984 75.2869 370.288C77.5269 372.528 81.1749 373.648 86.2309 373.648C91.5429 373.648 95.4149 372.336 97.8469 369.712C100.343 367.024 101.591 363.088 101.591 357.904L103.415 357.808L103.991 367.216H101.783C101.335 369.904 100.311 372.432 98.7109 374.8C97.1109 377.168 94.9029 379.12 92.0869 380.656C89.3349 382.192 85.8789 382.96 81.7189 382.96ZM111.959 382H102.455V367.024L101.591 366.544V334.288H111.959V382ZM129.25 382H116.866L137.41 358.384V357.808L116.866 334.288H129.442L145.282 352.336H145.858L161.506 334.288H173.986L153.442 357.616V358.192L173.986 382H161.41L145.57 363.76H144.898L129.25 382ZM203.034 382.96C197.85 382.96 193.306 382 189.402 380.08C185.498 378.16 182.458 375.344 180.282 371.632C178.17 367.92 177.114 363.44 177.114 358.192C177.114 353.2 178.17 348.848 180.282 345.136C182.458 341.424 185.466 338.544 189.306 336.496C193.146 334.384 197.658 333.328 202.842 333.328C207.77 333.328 212.09 334.224 215.802 336.016C219.578 337.744 222.49 340.304 224.538 343.696C226.65 347.024 227.706 351.12 227.706 355.984C227.706 356.816 227.674 357.616 227.61 358.384C227.546 359.088 227.45 359.792 227.322 360.496H183.738V354.736H220.506L217.818 358.288C217.882 357.648 217.914 357.04 217.914 356.464C217.914 355.824 217.914 355.184 217.914 354.544C217.914 350.128 216.634 346.864 214.074 344.752C211.578 342.576 207.77 341.488 202.65 341.488C196.954 341.488 192.89 342.8 190.458 345.424C188.026 348.048 186.81 351.824 186.81 356.752V359.248C186.81 364.24 188.026 368.048 190.458 370.672C192.89 373.296 196.986 374.608 202.746 374.608C207.738 374.608 211.322 373.84 213.498 372.304C215.738 370.704 216.858 368.496 216.858 365.68V364.912H227.226V365.776C227.226 369.168 226.17 372.176 224.058 374.8C222.01 377.36 219.162 379.376 215.514 380.848C211.93 382.256 207.77 382.96 203.034 382.96Z" fill="white"/>
<circle cx="115" cy="37" r="5" fill="white"/>
<circle cx="115" cy="3" r="3" fill="white"/>
<circle cx="115" cy="20" r="4" fill="white"/>
<circle cx="5" cy="5" r="5" transform="matrix(1 0 0 -1 110 420)" fill="white"/>
<circle cx="3" cy="3" r="3" transform="matrix(1 0 0 -1 112 452)" fill="white"/>
<circle cx="4" cy="4" r="4" transform="matrix(1 0 0 -1 111 436)" fill="white"/>
</svg>
