<svg width="44" height="34" viewBox="0 0 44 34" fill="none" xmlns="http://www.w3.org/2000/svg">
<path d="M21.017 0.909088V10.7273C21.017 13.5151 20.4716 16.3636 19.3807 19.2727C18.3201 22.1515 16.8958 24.8788 15.108 27.4545C13.3201 30 11.3655 32.1667 9.24432 33.9545L0.698864 28.9091C2.21402 26.5151 3.54735 23.8636 4.69886 20.9545C5.88068 18.0455 6.47159 14.6667 6.47159 10.8182V0.909088H21.017ZM43.8807 0.909088V10.7273C43.8807 13.5151 43.3352 16.3636 42.2443 19.2727C41.1837 22.1515 39.7595 24.8788 37.9716 27.4545C36.1837 30 34.214 32.1667 32.0625 33.9545L23.517 28.9091C25.0625 26.5151 26.411 23.8636 27.5625 20.9545C28.7443 18.0455 29.3352 14.6667 29.3352 10.8182V0.909088H43.8807Z" fill="#717342"/>
</svg>
