<svg width="80" height="80" viewBox="0 0 80 80" fill="none" xmlns="http://www.w3.org/2000/svg">
<g clip-path="url(#clip0_2_340)">
<path d="M118.72 -38.7202H-38.72V118.72H118.72V-38.7202Z" fill="white"/>
<path d="M118.72 -38.7202H-38.72V118.72H118.72V-38.7202Z" fill="white"/>
<path d="M36.7387 45.7495H34.4099V39.2169C34.2897 39.9754 34.1448 40.6683 33.9781 41.2942C33.81 41.9174 33.6145 42.4736 33.3931 42.9615C33.225 43.3196 33.0323 43.6667 32.8137 44.0057C32.595 44.3419 32.3353 44.6494 32.0374 44.9295C31.7422 45.207 31.421 45.4311 31.0753 45.6019C30.7322 45.7687 30.3496 45.8534 29.9273 45.8534C29.2344 45.8534 28.6727 45.7099 28.2435 45.4215C27.813 45.1345 27.4741 44.7628 27.2267 44.3063C26.9821 43.8512 26.8126 43.3374 26.7183 42.7647C26.6268 42.1894 26.5817 41.614 26.5817 41.0373V35.7237C26.5817 35.3014 26.5557 34.9638 26.5051 34.7123C26.4573 34.4581 26.4026 34.2627 26.3411 34.1274C26.2824 33.9935 26.2181 33.9005 26.1498 33.8486C26.0842 33.798 26.035 33.7721 26.0022 33.7721V33.5425H28.3583V41.0373C28.3583 41.3434 28.3747 41.7124 28.4075 42.1415C28.4403 42.572 28.5114 42.9943 28.6207 43.4098C28.7301 43.8225 28.89 44.197 29.1018 44.5359C29.3123 44.8721 29.5952 45.099 29.9491 45.2193C30.3058 45.3368 30.6516 45.3368 30.9878 45.2193C31.3267 45.099 31.6342 44.9131 31.9117 44.6617C32.1918 44.4075 32.4419 44.1191 32.6606 43.7979C32.8793 43.4781 33.0556 43.1747 33.1909 42.8905C33.5626 42.0787 33.8578 41.0851 34.0765 39.9111C34.2979 38.7385 34.4099 37.3418 34.4099 35.7237C34.4099 35.3014 34.384 34.9638 34.3334 34.7123C34.2815 34.4581 34.2254 34.2627 34.1639 34.1274C34.1052 33.9935 34.0409 33.9005 33.9726 33.8486C33.907 33.798 33.8578 33.7721 33.825 33.7721V33.5425H36.1538V43.5738C36.1538 43.9934 36.1729 44.3309 36.2139 44.5851C36.2577 44.8366 36.3123 45.0361 36.3779 45.181C36.4463 45.3231 36.516 45.4161 36.5857 45.4598C36.654 45.5008 36.7059 45.5199 36.7387 45.5199V45.7495Z" fill="#292929"/>
<path d="M37.572 45.5199C37.7907 45.5199 38.0176 45.4584 38.2554 45.3341C38.4918 45.207 38.7159 45.0553 38.9278 44.8803C39.1382 44.7027 39.335 44.5113 39.5182 44.3063C39.704 44.1027 39.8639 43.9264 39.9992 43.7761L39.9774 43.7979L43.2683 39.7963L39.4471 34.7834C39.3952 34.7178 39.3132 34.6303 39.2011 34.521C39.0918 34.4117 38.966 34.3023 38.8239 34.193C38.6818 34.0809 38.5369 33.9825 38.392 33.8978C38.2499 33.8144 38.1269 33.7721 38.0258 33.7721V33.5425H41.6994V33.7721C41.4616 33.7721 41.3604 33.8814 41.3932 34.1001C41.426 34.3187 41.56 34.5811 41.7978 34.8873L44.46 38.3531L47.3464 34.8599C47.6307 34.5251 47.7892 34.2613 47.822 34.0673C47.8576 33.8705 47.699 33.7721 47.3464 33.7721V33.5425H49.4948V33.7721C49.2611 33.7721 49.0302 33.8363 48.8006 33.9634C48.5737 34.0919 48.3496 34.2449 48.1282 34.4226C47.9095 34.5975 47.7072 34.7875 47.5214 34.9911C47.3355 35.192 47.1838 35.3683 47.0676 35.5214L44.5858 38.5062L49.1668 44.5086C49.2174 44.5783 49.298 44.6671 49.4074 44.7765C49.5167 44.8858 49.6424 44.9951 49.7846 45.1045C49.9294 45.2138 50.0743 45.3108 50.2164 45.3942C50.3613 45.4789 50.4857 45.5199 50.5882 45.5199V45.7495H46.9146V45.5199C47.151 45.5199 47.2508 45.4106 47.2152 45.1919C47.1824 44.9733 47.0471 44.7136 46.8107 44.4102L43.394 39.9494L39.5947 44.5359C39.361 44.8393 39.2353 45.0799 39.2175 45.2575C39.1984 45.4325 39.3596 45.5199 39.6986 45.5199V45.7495H37.572V45.5199Z" fill="#292929"/>
<path d="M51.6447 41.2668C51.4261 40.44 51.3741 39.6214 51.4917 38.8123C51.6119 38.0005 51.8702 37.2529 52.2679 36.571C52.6643 35.8863 53.1836 35.2904 53.8259 34.7834C54.4669 34.2777 55.2008 33.9142 56.029 33.6955C56.9064 33.4591 57.751 33.4044 58.5601 33.5315C59.3691 33.66 60.103 33.9087 60.7631 34.2804C61.4219 34.6522 61.9877 35.1264 62.4578 35.7018C62.9307 36.2744 63.2696 36.8976 63.4746 37.5714C62.8651 37.5714 62.2091 37.5973 61.5066 37.6479C60.8069 37.6998 60.17 37.7928 59.5987 37.9267C60.0716 37.9089 60.5062 37.9896 60.8998 38.1672C61.2961 38.3422 61.6392 38.5827 61.9275 38.8888C62.2145 39.1922 62.4428 39.5448 62.6109 39.9494C62.7776 40.3539 62.8801 40.7776 62.917 41.2176C62.9826 42.1292 62.7913 42.9178 62.343 43.5847C61.8975 44.2516 61.3071 44.7751 60.5718 45.1536C59.8393 45.5336 59.0165 45.7509 58.1063 45.8096C57.1948 45.8711 56.3133 45.7509 55.4605 45.4488C54.6077 45.1427 53.8341 44.6493 53.1426 43.9674C52.4497 43.2827 51.9509 42.382 51.6447 41.2668ZM53.1426 39.4464C53.1932 39.9357 53.2683 40.3908 53.3667 40.8131C53.6865 42.0267 54.1772 42.9806 54.8373 43.6722C55.496 44.3651 56.2094 44.8393 56.9747 45.0935C57.7428 45.345 58.5163 45.3996 59.2926 45.2575C60.0689 45.1126 60.7426 44.8202 61.3153 44.3828C61.8906 43.9428 62.3102 43.3811 62.5726 42.6991C62.835 42.0144 62.8405 41.2504 62.589 40.4086C62.4496 39.9535 62.2296 39.5394 61.9275 39.1676C61.6241 38.7959 61.2524 38.5226 60.8123 38.3476C60.375 38.17 59.8775 38.1016 59.3199 38.1454C58.7623 38.1864 58.1719 38.3914 57.5487 38.7631C56.9392 39.1171 56.3433 39.3672 55.7611 39.512C55.1776 39.6542 54.6418 39.7075 54.1539 39.6706C53.9681 39.6569 53.789 39.6364 53.6182 39.6104C53.4501 39.5858 53.2916 39.5312 53.1426 39.4464ZM61.523 37.4456C61.2852 36.9031 60.9818 36.3837 60.6101 35.8876C60.2383 35.3888 59.8201 34.9624 59.3582 34.6084C58.8949 34.2558 58.3851 34.0016 57.8275 33.8486C57.2699 33.6955 56.6864 33.7051 56.0782 33.8759C55.5056 34.0262 55.0245 34.2859 54.635 34.6576C54.2482 35.0294 53.9407 35.4612 53.7111 35.9532C53.4815 36.4425 53.3203 36.9741 53.2301 37.5495C53.1385 38.1221 53.1098 38.6866 53.1426 39.2442C53.4296 39.3795 53.7672 39.4628 54.1539 39.4956C54.6268 39.5284 55.1461 39.4738 55.7119 39.3316C56.2764 39.1868 56.8545 38.9462 57.4449 38.61C58.1555 38.2055 58.8635 37.9199 59.5714 37.7518C60.2821 37.5809 60.9326 37.4784 61.523 37.4456Z" fill="#292929"/>
<path d="M18.026 28.2428C17.9891 28.2428 17.9358 28.2688 17.8674 28.3193C17.8018 28.3672 17.7335 28.4601 17.6652 28.5981C17.5996 28.7334 17.5449 28.9289 17.5012 29.1831C17.4602 29.4345 17.441 29.7707 17.441 30.1889V45.5338H20.3001C20.926 45.4683 21.4973 45.378 22.0112 45.2605C22.525 45.1402 22.9965 45.0008 23.427 44.8396C23.8603 44.6797 24.2662 44.4993 24.6461 44.2984C25.0247 44.0947 25.4087 43.8747 25.7996 43.6369H26.0237V45.7908H23.848L23.1865 45.7635H15.0357V45.5338C15.0685 45.5338 15.1177 45.5147 15.1833 45.4737C15.2516 45.43 15.3159 45.337 15.3746 45.1949C15.4361 45.0501 15.4908 44.8505 15.5386 44.5991C15.5892 44.3449 15.6152 44.0073 15.6152 43.5877V30.1889C15.6152 29.7707 15.5892 29.4345 15.5386 29.1831C15.4908 28.9289 15.4361 28.7334 15.3746 28.5981C15.3159 28.4601 15.2516 28.3672 15.1833 28.3193C15.1177 28.2688 15.0685 28.2428 15.0357 28.2428V28.0132H18.026V28.2428Z" fill="#292929"/>
<path d="M32.1339 50.656C31.9917 50.656 31.866 50.6355 31.7567 50.5959C31.6473 50.5563 31.5435 50.492 31.4451 50.4046C31.4013 50.369 31.3795 50.328 31.3795 50.2843C31.3795 50.2488 31.3918 50.216 31.4177 50.1859C31.4464 50.1572 31.4806 50.1422 31.5216 50.1422C31.5544 50.1422 31.5817 50.1531 31.6036 50.175C31.6829 50.2488 31.7635 50.3034 31.8441 50.339C31.9275 50.3718 32.0218 50.3882 32.1284 50.3882C32.2514 50.3882 32.3553 50.3608 32.44 50.3062C32.5275 50.2488 32.5712 50.175 32.5712 50.0875C32.5671 49.9864 32.5234 49.9071 32.44 49.8524C32.3594 49.7978 32.2336 49.7513 32.0628 49.7103C31.8619 49.6707 31.7075 49.6051 31.5981 49.5135C31.4888 49.4192 31.4341 49.288 31.4341 49.1199C31.4341 49.0037 31.4628 48.904 31.5216 48.8192C31.5831 48.7318 31.6665 48.6648 31.7731 48.617C31.8824 48.5705 32.004 48.5459 32.1393 48.5459C32.2623 48.5459 32.3771 48.5664 32.4837 48.606C32.5931 48.6429 32.6805 48.6935 32.7461 48.7591C32.7899 48.8001 32.8117 48.8411 32.8117 48.8848C32.8117 48.9217 32.7981 48.9545 32.7735 48.9832C32.7475 49.0092 32.7161 49.0215 32.6805 49.0215C32.6505 49.0215 32.6272 49.0133 32.6095 48.9942C32.5575 48.9436 32.4865 48.9012 32.3963 48.8684C32.3088 48.8329 32.2227 48.8138 32.1393 48.8138C32.0109 48.8138 31.907 48.8411 31.8277 48.8958C31.7512 48.9504 31.7129 49.0215 31.7129 49.109C31.7129 49.2046 31.7512 49.2771 31.8277 49.3276C31.907 49.3796 32.0218 49.4233 32.1721 49.4588C32.3252 49.4916 32.4482 49.5326 32.5439 49.5791C32.6423 49.6228 32.7161 49.6857 32.768 49.765C32.8227 49.8456 32.85 49.9495 32.85 50.0766C32.85 50.19 32.8186 50.2925 32.7571 50.3827C32.6942 50.4702 32.6067 50.5385 32.4947 50.585C32.3853 50.6314 32.2651 50.656 32.1339 50.656Z" fill="#292929"/>
<path d="M35.3914 48.5732C35.4351 48.5732 35.4693 48.5869 35.4952 48.6115C35.5198 48.6375 35.5335 48.6703 35.5335 48.7099C35.5335 48.7509 35.5198 48.7837 35.4952 48.8083C35.4693 48.8302 35.4351 48.8411 35.3914 48.8411H34.872V50.4866C34.872 50.5276 34.857 50.5617 34.8283 50.5904C34.7982 50.6164 34.7627 50.6287 34.719 50.6287C34.678 50.6287 34.6438 50.6164 34.6151 50.5904C34.585 50.5617 34.5714 50.5276 34.5714 50.4866V48.8411H34.052C34.011 48.8411 33.9769 48.8302 33.9482 48.8083C33.9222 48.7837 33.9099 48.7482 33.9099 48.7044C33.9099 48.6689 33.9222 48.6375 33.9482 48.6115C33.9769 48.5869 34.011 48.5732 34.052 48.5732H35.3914Z" fill="#292929"/>
<path d="M38.1666 48.5732C38.2062 48.5732 38.239 48.5869 38.265 48.6115C38.2896 48.6375 38.3033 48.6703 38.3033 48.7099V49.8415C38.3033 49.9946 38.2677 50.134 38.1994 50.257C38.1297 50.3813 38.0354 50.4784 37.9151 50.5467C37.7949 50.6164 37.6596 50.6506 37.5106 50.6506C37.3575 50.6506 37.2181 50.6164 37.0951 50.5467C36.9749 50.4784 36.8792 50.3813 36.8109 50.257C36.7453 50.134 36.7125 49.9946 36.7125 49.8415V48.7099C36.7125 48.6703 36.7248 48.6375 36.7507 48.6115C36.7794 48.5869 36.8136 48.5732 36.8546 48.5732C36.8942 48.5732 36.927 48.5883 36.953 48.617C36.9817 48.6429 36.9967 48.6744 36.9967 48.7099V49.8415C36.9967 49.9399 37.02 50.0315 37.0678 50.1148C37.1143 50.1955 37.1771 50.2597 37.2537 50.3062C37.3329 50.3499 37.419 50.3718 37.5106 50.3718C37.6008 50.3718 37.6869 50.3499 37.7675 50.3062C37.8468 50.2597 37.911 50.1955 37.9589 50.1148C38.0094 50.0315 38.0354 49.9399 38.0354 49.8415V48.7099C38.0354 48.6703 38.0463 48.6375 38.0682 48.6115C38.0928 48.5869 38.1256 48.5732 38.1666 48.5732Z" fill="#292929"/>
<path d="M40.4872 48.5732C40.673 48.5732 40.8316 48.6211 40.9628 48.7154C41.094 48.8069 41.1924 48.9313 41.258 49.0871C41.3236 49.2402 41.3564 49.4124 41.3564 49.601C41.3564 49.795 41.3236 49.97 41.258 50.1258C41.1924 50.2788 41.094 50.4018 40.9628 50.492C40.8316 50.5836 40.673 50.6287 40.4872 50.6287H39.7656C39.7287 50.6287 39.6959 50.6164 39.6672 50.5904C39.6412 50.5617 39.6289 50.5276 39.6289 50.4866V48.7154C39.6289 48.6757 39.6412 48.6429 39.6672 48.617C39.6959 48.5883 39.7287 48.5732 39.7656 48.5732H40.4872ZM40.4598 50.3608C40.6594 50.3608 40.8097 50.2898 40.9081 50.1476C41.0092 50.0055 41.0612 49.8237 41.0612 49.601C41.0612 49.3823 41.0092 49.2019 40.9081 49.0598C40.8056 48.9176 40.6566 48.8466 40.4598 48.8466H39.9186V50.3608H40.4598Z" fill="#292929"/>
<path d="M42.8614 50.4866C42.8614 50.5276 42.8464 50.5617 42.8177 50.5904C42.7876 50.6164 42.7535 50.6287 42.7138 50.6287C42.6701 50.6287 42.6346 50.6164 42.61 50.5904C42.584 50.5617 42.5717 50.5276 42.5717 50.4866V48.7154C42.5717 48.6757 42.584 48.6429 42.61 48.617C42.6387 48.5883 42.6728 48.5732 42.7138 48.5732C42.7535 48.5732 42.7876 48.5883 42.8177 48.617C42.8464 48.6429 42.8614 48.6757 42.8614 48.7154V50.4866Z" fill="#292929"/>
<path d="M46.0528 49.601C46.0528 49.7978 46.009 49.9768 45.9216 50.1367C45.8368 50.298 45.7207 50.4251 45.5717 50.5194C45.4214 50.6109 45.2519 50.656 45.0633 50.656C44.8733 50.656 44.7025 50.6109 44.5494 50.5194C44.3991 50.4251 44.2816 50.298 44.1941 50.1367C44.1094 49.9768 44.0684 49.7978 44.0684 49.601C44.0684 49.4042 44.1094 49.2265 44.1941 49.0652C44.2816 48.9053 44.3991 48.7796 44.5494 48.688C44.7025 48.5937 44.8733 48.5459 45.0633 48.5459C45.2519 48.5459 45.4214 48.5937 45.5717 48.688C45.7207 48.7796 45.8368 48.9053 45.9216 49.0652C46.009 49.2265 46.0528 49.4042 46.0528 49.601ZM45.7521 49.601C45.7521 49.4561 45.722 49.3249 45.6646 49.2074C45.6059 49.0871 45.5239 48.9942 45.4186 48.9286C45.312 48.8602 45.1945 48.8247 45.0633 48.8247C44.928 48.8247 44.8077 48.8575 44.7025 48.9231C44.6 48.9887 44.518 49.0816 44.4565 49.2019C44.3977 49.3194 44.369 49.452 44.369 49.601C44.369 49.7472 44.3977 49.8798 44.4565 50C44.518 50.1176 44.6 50.2105 44.7025 50.2788C44.8077 50.3444 44.928 50.3772 45.0633 50.3772C45.1945 50.3772 45.312 50.3444 45.4186 50.2788C45.5239 50.2105 45.6059 50.1176 45.6646 50C45.722 49.8798 45.7521 49.7472 45.7521 49.601Z" fill="#292929"/>
<path d="M47.8811 50.656C47.739 50.656 47.6132 50.6355 47.5039 50.5959C47.3946 50.5563 47.2907 50.492 47.1923 50.4046C47.1486 50.369 47.1267 50.328 47.1267 50.2843C47.1267 50.2488 47.139 50.216 47.165 50.1859C47.1937 50.1572 47.2278 50.1422 47.2688 50.1422C47.3016 50.1422 47.329 50.1531 47.3508 50.175C47.4301 50.2488 47.5107 50.3034 47.5914 50.339C47.6747 50.3718 47.769 50.3882 47.8756 50.3882C47.9986 50.3882 48.1025 50.3608 48.1872 50.3062C48.2747 50.2488 48.3184 50.175 48.3184 50.0875C48.3143 49.9864 48.2706 49.9071 48.1872 49.8524C48.1066 49.7978 47.9809 49.7513 47.81 49.7103C47.6091 49.6707 47.4547 49.6051 47.3454 49.5135C47.236 49.4192 47.1814 49.288 47.1814 49.1199C47.1814 49.0037 47.2101 48.904 47.2688 48.8192C47.3303 48.7318 47.4137 48.6648 47.5203 48.617C47.6296 48.5705 47.7513 48.5459 47.8866 48.5459C48.0096 48.5459 48.1244 48.5664 48.231 48.606C48.3403 48.6429 48.4278 48.6935 48.4934 48.7591C48.5371 48.8001 48.559 48.8411 48.559 48.8848C48.559 48.9217 48.5453 48.9545 48.5207 48.9832C48.4947 49.0092 48.4633 49.0215 48.4278 49.0215C48.3977 49.0215 48.3745 49.0133 48.3567 48.9942C48.3048 48.9436 48.2337 48.9012 48.1435 48.8684C48.056 48.8329 47.9699 48.8138 47.8866 48.8138C47.7581 48.8138 47.6542 48.8411 47.575 48.8958C47.4984 48.9504 47.4602 49.0215 47.4602 49.109C47.4602 49.2046 47.4984 49.2771 47.575 49.3276C47.6542 49.3796 47.769 49.4233 47.9194 49.4588C48.0724 49.4916 48.1954 49.5326 48.2911 49.5791C48.3895 49.6228 48.4633 49.6857 48.5152 49.765C48.5699 49.8456 48.5972 49.9495 48.5972 50.0766C48.5972 50.19 48.5658 50.2925 48.5043 50.3827C48.4414 50.4702 48.354 50.5385 48.2419 50.585C48.1326 50.6314 48.0123 50.656 47.8811 50.656Z" fill="#292929"/>
</g>
<defs>
<clipPath id="clip0_2_340">
<rect width="80" height="80" rx="40" fill="white"/>
</clipPath>
</defs>
</svg>
