<svg width="1234" height="142" viewBox="0 0 1234 142" fill="none" xmlns="http://www.w3.org/2000/svg">
<path d="M39.344 142H0.24V2.64H39.344V142ZM119.84 142H11.056V106.848H119.84V142ZM173.296 144.08C163.589 144.08 155.547 142.347 149.168 138.88C142.789 135.413 138.005 130.699 134.816 124.736C131.765 118.773 130.24 111.979 130.24 104.352V37.168H169.344V90C169.344 97.2107 171.008 102.203 174.336 104.976C177.803 107.749 183.973 109.136 192.848 109.136C201.861 109.136 207.824 107.888 210.736 105.392C213.787 102.757 215.312 98.0427 215.312 91.248H219.264L222.592 110.176H215.728C215.035 116 213.163 121.477 210.112 126.608C207.061 131.739 202.555 135.968 196.592 139.296C190.629 142.485 182.864 144.08 173.296 144.08ZM254.416 142H217.808V109.76L215.312 108.72V37.168H254.416V142ZM305.027 142H257.811L296.915 91.248V89.168L257.811 37.168H305.651L327.075 68.784H329.155L349.747 37.168H396.963L357.859 88.544V90.624L396.963 142H349.123L327.699 111.216H325.619L305.027 142ZM459.657 144.08C447.87 144.08 437.401 142.277 428.249 138.672C419.097 135.067 411.955 129.243 406.825 121.2C401.694 113.157 399.129 102.619 399.129 89.584C399.129 78.2133 401.694 68.5067 406.825 60.464C411.955 52.2827 418.958 46.0427 427.833 41.744C436.846 37.3067 447.177 35.088 458.825 35.088C470.889 35.088 481.358 37.0987 490.233 41.12C499.107 45.0027 505.971 50.8267 510.825 58.592C515.678 66.2187 518.105 75.648 518.105 86.88C518.105 88.6827 518.035 90.3467 517.897 91.872C517.897 93.2587 517.758 94.9227 517.481 96.864H424.713V77.104H489.193L480.665 89.376C480.665 88.128 480.665 86.9493 480.665 85.84C480.665 84.592 480.665 83.344 480.665 82.096C480.665 75.7173 479.001 71.28 475.673 68.784C472.483 66.288 466.59 65.04 457.993 65.04C449.118 65.04 443.086 66.4267 439.897 69.2C436.846 71.9733 435.321 76.9653 435.321 84.176V94.16C435.321 101.509 436.915 106.501 440.105 109.136C443.294 111.771 449.326 113.088 458.201 113.088C466.105 113.088 471.374 112.395 474.009 111.008C476.782 109.483 478.169 107.195 478.169 104.144V101.856H517.273V104.352C517.273 112.117 514.915 118.981 510.201 124.944C505.486 130.907 498.83 135.621 490.233 139.088C481.635 142.416 471.443 144.08 459.657 144.08ZM625.215 144.08C611.071 144.08 598.868 142.347 588.607 138.88C578.346 135.275 570.442 129.797 564.895 122.448C559.348 114.96 556.575 105.323 556.575 93.536V92.288H595.679V96.656C595.679 99.7067 596.303 102.133 597.551 103.936C598.938 105.6 601.711 106.779 605.871 107.472C610.031 108.165 616.479 108.512 625.215 108.512C633.119 108.512 638.943 108.304 642.687 107.888C646.431 107.333 648.788 106.501 649.759 105.392C650.868 104.144 651.423 102.48 651.423 100.4C651.423 97.904 650.452 96.032 648.511 94.784C646.708 93.536 642.964 92.5653 637.279 91.872L593.599 86.048C585.002 84.8 577.791 82.512 571.967 79.184C566.143 75.7173 561.775 71.2107 558.863 65.664C555.951 60.1173 554.495 53.6 554.495 46.112C554.495 40.5653 555.674 35.088 558.031 29.68C560.388 24.272 564.202 19.4187 569.471 15.12C574.74 10.6827 581.674 7.14666 590.271 4.512C598.868 1.87733 609.476 0.559999 622.095 0.559999C636.932 0.559999 649.135 2.64 658.703 6.79999C668.41 10.8213 675.62 16.6453 680.335 24.272C685.188 31.76 687.615 40.704 687.615 51.104V52.352H648.511V49.232C648.511 45.904 647.748 43.2693 646.223 41.328C644.836 39.3867 641.924 38 637.487 37.168C633.188 36.336 626.671 35.92 617.935 35.92C611.279 35.92 606.218 36.2667 602.751 36.96C599.284 37.5147 596.858 38.416 595.471 39.664C594.223 40.912 593.599 42.576 593.599 44.656C593.599 46.0427 593.876 47.2907 594.431 48.4C595.124 49.3707 596.164 50.1333 597.551 50.688C599.076 51.2427 601.087 51.728 603.583 52.144L647.263 58.592C658.634 60.256 667.439 63.168 673.679 67.328C679.919 71.3493 684.287 76.1333 686.783 81.68C689.279 87.2267 690.527 92.9813 690.527 98.944C690.527 106.848 688.308 114.267 683.871 121.2C679.572 127.995 672.639 133.541 663.071 137.84C653.503 142 640.884 144.08 625.215 144.08ZM778.219 142H750.763C737.728 142 727.467 138.741 719.979 132.224C712.629 125.707 708.955 115.653 708.955 102.064V19.072H748.059V96.448C748.059 100.608 748.821 103.381 750.347 104.768C752.011 106.155 755.061 106.848 759.499 106.848H778.219V142ZM778.219 69.2H693.562V37.168H778.219V69.2ZM830.609 144.08C820.902 144.08 812.859 142.347 806.481 138.88C800.102 135.413 795.318 130.699 792.129 124.736C789.078 118.773 787.553 111.979 787.553 104.352V37.168H826.657V90C826.657 97.2107 828.321 102.203 831.649 104.976C835.115 107.749 841.286 109.136 850.161 109.136C859.174 109.136 865.137 107.888 868.049 105.392C871.099 102.757 872.625 98.0427 872.625 91.248H876.577L879.905 110.176H873.041C872.347 116 870.475 121.477 867.425 126.608C864.374 131.739 859.867 135.968 853.905 139.296C847.942 142.485 840.177 144.08 830.609 144.08ZM911.729 142H875.121V109.76L872.625 108.72V37.168H911.729V142ZM971.075 144.08C960.398 144.08 951.315 141.931 943.827 137.632C936.478 133.195 930.862 126.885 926.979 118.704C923.235 110.523 921.363 100.816 921.363 89.584C921.363 78.2133 923.235 68.5067 926.979 60.464C930.723 52.2827 936.131 46.0427 943.203 41.744C950.414 37.3067 959.15 35.088 969.411 35.088C981.752 35.088 991.043 37.792 997.283 43.2C1003.52 48.4693 1007.41 55.472 1008.93 64.208H1014.96V88.336H1011.01C1011.01 80.9867 1008.86 76.2027 1004.56 73.984C1000.4 71.7653 993.955 70.656 985.219 70.656C979.256 70.656 974.472 71.28 970.867 72.528C967.262 73.776 964.696 75.7867 963.171 78.56C961.646 81.1947 960.883 84.8693 960.883 89.584C960.883 94.16 961.646 97.8347 963.171 100.608C964.696 103.381 967.262 105.392 970.867 106.64C974.472 107.749 979.256 108.304 985.219 108.304C991.043 108.304 995.827 107.819 999.571 106.848C1003.45 105.877 1006.3 104.075 1008.1 101.44C1010.04 98.6667 1011.01 94.784 1011.01 89.792H1014.96L1017.88 113.712H1011.43C1009.76 124.112 1005.67 131.808 999.155 136.8C992.776 141.653 983.416 144.08 971.075 144.08ZM1050.12 142H1013.51V112.464L1011.01 109.76V2.64H1050.12V142ZM1101.69 142H1062.58V37.168H1101.69V142ZM1101.69 27.6H1062.58V2.64H1101.69V27.6ZM1172.21 144.08C1160.15 144.08 1149.47 141.931 1140.18 137.632C1131.03 133.195 1123.88 126.885 1118.75 118.704C1113.62 110.523 1111.06 100.816 1111.06 89.584C1111.06 78.2133 1113.62 68.5067 1118.75 60.464C1123.88 52.2827 1131.03 46.0427 1140.18 41.744C1149.47 37.3067 1160.15 35.088 1172.21 35.088C1184.41 35.088 1195.09 37.3067 1204.24 41.744C1213.39 46.0427 1220.53 52.2827 1225.67 60.464C1230.8 68.5067 1233.36 78.2133 1233.36 89.584C1233.36 100.816 1230.8 110.523 1225.67 118.704C1220.53 126.885 1213.39 133.195 1204.24 137.632C1195.09 141.931 1184.41 144.08 1172.21 144.08ZM1172.21 109.552C1181.08 109.552 1187.05 108.165 1190.1 105.392C1193.15 102.48 1194.67 97.2107 1194.67 89.584C1194.67 81.9573 1193.15 76.688 1190.1 73.776C1187.05 70.864 1181.08 69.408 1172.21 69.408C1163.33 69.408 1157.37 70.864 1154.32 73.776C1151.27 76.688 1149.75 81.9573 1149.75 89.584C1149.75 97.2107 1151.27 102.48 1154.32 105.392C1157.37 108.165 1163.33 109.552 1172.21 109.552Z" fill="#717342"/>
</svg>
